<?xml version="1.0" encoding="UTF-8" standalone="no"?>
<svg
   id="icon"
   width="32"
   height="32"
   viewBox="0 0 32 32"
   version="1.1"
   sodipodi:docname="wanaku.svg"
   inkscape:version="1.3.2 (1:1.3.2+202311252150+091e20ef0f)"
   inkscape:export-filename="wanaku.png"
   inkscape:export-xdpi="1536"
   inkscape:export-ydpi="1536"
   xmlns:inkscape="http://www.inkscape.org/namespaces/inkscape"
   xmlns:sodipodi="http://sodipodi.sourceforge.net/DTD/sodipodi-0.dtd"
   xmlns="http://www.w3.org/2000/svg"
   xmlns:svg="http://www.w3.org/2000/svg">
  <sodipodi:namedview
     id="namedview2"
     pagecolor="#ffffff"
     bordercolor="#000000"
     borderopacity="0.25"
     inkscape:showpageshadow="2"
     inkscape:pageopacity="0.0"
     inkscape:pagecheckerboard="0"
     inkscape:deskcolor="#d1d1d1"
     inkscape:zoom="25.59375"
     inkscape:cx="15.980464"
     inkscape:cy="15.980464"
     inkscape:window-width="3374"
     inkscape:window-height="1368"
     inkscape:window-x="66"
     inkscape:window-y="35"
     inkscape:window-maximized="1"
     inkscape:current-layer="icon" />
  <defs
     id="defs1">
    <style
       id="style1">
      .cls-1 {
        fill: none;
      }
    </style>
  </defs>
  <path
     id="path1"
     d="M 3.0800781 15.923828 L 1.0253906 15.923828 A 2.0016 2.0016 0 0 0 1.5859375 17.416016 L 4.8789062 20.707031 L 3 22.585938 L 4.4140625 24 L 6.2929688 22.121094 L 9.5839844 25.414062 A 2.0016 2.0016 0 0 0 12.416016 25.414062 L 14.671875 23.15625 L 13.255859 21.742188 L 10.998047 23.998047 L 3.0019531 16.001953 L 3.0800781 15.923828 z "
     style="stroke:none;stroke-opacity:1;fill:#2ec4b6;fill-opacity:1" />
  <path
     id="path5"
     d="M 20.996094 15.923828 L 18.919922 15.923828 L 18.998047 16.001953 L 17.5 17.5 L 18.914062 18.914062 L 20.414062 17.416016 A 2.0016 2.0016 0 0 0 20.996094 15.923828 z "
     style="stroke:none;stroke-opacity:1;fill:#2ec4b6;fill-opacity:1" />
  <path
     id="path4"
     d="M 10.6875 6.0253906 A 2.0016 2.0016 0 0 0 9.5839844 6.5859375 L 1.5859375 14.583984 A 2.0016 2.0016 0 0 0 1.0253906 15.923828 L 3.0800781 15.923828 L 10.998047 8.0019531 L 18.919922 15.923828 L 20.996094 15.923828 A 2.0016 2.0016 0 0 0 20.414062 14.583984 L 12.416016 6.5859375 A 2.0016 2.0016 0 0 0 10.6875 6.0253906 z " />
  <path
     id="path2"
     d="M 11.025391 15.707031 L 13.296875 15.707031 L 14.501953 14.501953 L 13.085938 13.085938 L 11.585938 14.583984 A 2.0016 2.0016 0 0 0 11.025391 15.707031 z "
     transform="translate(0 0)" />
  <path
     id="path7"
     d="M 30.976562 15.707031 L 28.703125 15.707031 L 28.998047 16.001953 L 20.998047 23.998047 L 13.001953 16.001953 L 13.296875 15.707031 L 11.025391 15.707031 A 2.0016 2.0016 0 0 0 11.585938 17.416016 L 19.583984 25.414062 A 2.0016 2.0016 0 0 0 22.416016 25.414062 L 30.414062 17.416016 A 2.0016 2.0016 0 0 0 30.976562 15.707031 z "
     transform="translate(0 0)"
     style="fill:#2ec4b6;fill-opacity:1" />
  <path
     id="path6"
     d="M 20.6875 6.0253906 A 2.0016 2.0016 0 0 0 19.583984 6.5859375 L 17.328125 8.84375 L 18.742188 10.257812 L 20.998047 8.0019531 L 28.703125 15.707031 L 30.976562 15.707031 A 2.0016 2.0016 0 0 0 30.414062 14.583984 L 27.121094 11.292969 L 29 9.4140625 L 27.585938 8 L 25.707031 9.8789062 L 22.416016 6.5859375 A 2.0016 2.0016 0 0 0 20.6875 6.0253906 z "
     transform="translate(0 0)" />
  <rect
     id="_Transparent_Rectangle_"
     data-name="&lt;Transparent Rectangle&gt;"
     class="cls-1"
     width="32"
     height="32" />
</svg>
